<svg xmlns="http://www.w3.org/2000/svg" viewBox="0 0 48 48" width="48" height="48">
  <defs>
    <linearGradient id="g" x1="0" y1="0" x2="1" y2="1">
      <stop offset="0" stop-color="#1B4AA0"/>
      <stop offset="1" stop-color="#0A1F44"/>
    </linearGradient>
  </defs>
  <rect x="0" y="0" width="48" height="48" rx="11" fill="url(#g)"/>
  <path d="M24 9.5l1.9 3.9 4.3.6-3.1 3 .8 4.3L24 19.2l-3.9 2.1.8-4.3-3.1-3 4.3-.6z" fill="#F5B700"/>
  <path d="M11 27c3.5-1.6 7.5-1.6 11 0v9c-3.5-1.6-7.5-1.6-11 0z" fill="#ffffff" fill-opacity="0.95"/>
  <path d="M37 27c-3.5-1.6-7.5-1.6-11 0v9c3.5-1.6 7.5-1.6 11 0z" fill="#ffffff" fill-opacity="0.75"/>
</svg>
